<svg id="Capa_1" enable-background="new 0 0 497 497" height="512" viewBox="0 0 497 497" width="512" xmlns="http://www.w3.org/2000/svg"><g><path d="m170.509 176.093-44.235 44.235-69.262-69.263 44.235-44.234 7.18 7.179 8.093 17.157 16.032 6.968z" fill="#efedef"/><path d="m170.507 176.09-44.23 44.24-10-10 34.23-34.24-59.26-59.26 10-10z" fill="#d7d0d6"/><path d="m108.02 112.167-45.261 44.645c-6.362 6.362-13.543 7.677-19.905 1.315l-1-1.315c-1.213-1.213-2.783-1.255-3.534-2.701-3.186-6.137-2.204-13.875 2.945-19.024l40.859-40.859 4.562-2.561c6.362-6.362 15.138-7.029 21.5-.667l.901.828c6.363 6.362 5.295 13.976-1.067 20.339z" fill="#fe646f"/><path d="m113.947 101.74c0 4.17-1.59 8.34-4.77 11.52l-44.87 44.87c-6.36 6.36-16.68 6.36-23.04 0-1.21-1.22-2.19-2.57-2.94-4.02l40.85-40.85c3.18-3.18 4.77-7.35 4.77-11.52 0-2.58-.61-5.16-1.82-7.51l4.01-4.01c6.36-6.36 16.67-6.36 23.04 0 3.18 3.18 4.77 7.35 4.77 11.52z" fill="#fd4755"/><path d="m326.491 175.574 44.235 44.235 37.944-37.944 8.183-15.365 15.958-8.776 7.177-7.177-44.235-44.235z" fill="#efedef"/><path d="m443.712 146.825-69.26 69.26-10-10 59.26-59.26-34.23-34.24 10-10z" fill="#d7d0d6"/><path d="m387.828 112.741 40.861 40.861 4.998 2.148c6.362 6.362 14.119 8.088 20.481 1.726l1.568-1.476c6.362-6.362 4.314-13.888-2.049-20.25l-43.5-43.75c-6.362-6.362-14.638-7.112-21-.75-1.212 1.212-3.552 1.02-4.302 2.464-3.188 6.137-2.207 13.877 2.943 19.027z" fill="#fe646f"/><path d="m460.507 146.09c0 4.17-1.59 8.34-4.77 11.52-6.36 6.36-16.68 6.36-23.04 0l-4.01-4.01c1.21-2.35 1.82-4.93 1.82-7.51 0-4.17-1.59-8.34-4.77-11.52l-40.86-40.86c.76-1.44 1.74-2.8 2.95-4.01 6.36-6.36 16.68-6.36 23.04 0l44.87 44.87c3.18 3.18 4.77 7.35 4.77 11.52z" fill="#fd4755"/><path d="m302.956 133.19h-108.872v-52.36l5.41-10-5.41-13.103h108.872v3.103l-7.103 20 7.103 27.227z" fill="#efedef"/><path d="m194.087 57.73h108.87v3.1h-108.87z" fill="#aa9ea9"/><path d="m272.957 57.73h30v75.46h-30z" fill="#d7d0d6"/><path d="m351.957 8v44.83c0 4.43-4.25 4.9-9.77 4.9l-21.333 3.1h-167.767c-5.52 0-10-3.57-10-8v-44.83c0-4.41 4.48-8 10-8h167.1l21.25 1.5c5.52 0 10.52 2.09 10.52 6.5z" fill="#fe646f"/><path d="m194.087 60.83h108.87v20h-108.87z" fill="#d7d0d6"/><path d="m353.957 8.004v44.825c0 4.426-4.48 8.004-10 8.004h-30c5.52 0 10-3.578 10-8.004v-44.825c0-4.418-4.48-8.004-10-8.004h30c5.52 0 10 3.586 10 8.004z" fill="#fd4755"/><path d="m443.437 298.747c0 109.492-82.75 193.253-192 197.253-2.963.109-8.831.935-11.764.806-105.387-4.628-189.406-91.532-189.406-198.059 0-106.673 84.25-193.669 189.839-198.078 2.79-.117 10.012 1.331 12.831 1.331 107.79 4.83 190.5 87.255 190.5 196.747z" fill="#fe646f"/><path d="m379.457 298.746c0 1.027.989 2.052.967 3.074-1.582 74.468-50.517 134.822-124.407 138.667-2.482.129-4.981-.805-7.496-.805-2.517 0-5.019.934-7.504.805-74.901-3.902-134.432-65.869-134.432-141.741 0-2.217 1.051-4.422 1.151-6.614.098-2.13-.758-4.248-.567-6.353 6.326-69.852 63.262-125.097 133.847-128.774 2.485-.129 4.987.805 7.504.805 2.514 0 5.014-.935 7.496-.805 70.223 3.654 116.938 58.347 123.753 127.689.455 4.622-.312 9.31-.312 14.052z" fill="#efedef"/><path d="m446.777 298.75c0 109.49-88.76 198.25-198.26 198.25-5.05 0-10.05-.19-15-.56 102.5-7.67 183.26-93.25 183.26-197.69 0-104.45-80.76-190.03-183.26-197.7 4.95-.37 9.95-.56 15-.56 109.5 0 198.26 88.76 198.26 198.26z" fill="#fd4755"/><path d="m206.994 342.812c-1.919 0-3.839-.732-5.303-2.197-2.929-2.929-2.929-7.678 0-10.606l102.839-102.84c2.929-2.929 7.678-2.929 10.607 0s2.929 7.678 0 10.607l-102.84 102.839c-1.464 1.465-3.383 2.197-5.303 2.197z" fill="#fbe08b"/><ellipse cx="248.52" cy="294.319" fill="#fe646f" rx="26.625" ry="26.624" transform="matrix(.926 -.377 .377 .926 -92.533 115.241)"/><path d="m390.457 298.75c0 78.39-63.55 141.93-141.94 141.93-5.07 0-10.07-.27-15-.78 71.34-7.5 126.94-67.83 126.94-141.15s-55.6-133.66-126.94-141.16c4.93-.51 9.93-.78 15-.78 78.39 0 141.94 63.55 141.94 141.94z" fill="#d7d0d6"/><g fill="#b5adb6"><path d="m248.521 156.81c-2.517 0-5.019.068-7.504.197v35.813c0 4.14 3.36 7.5 7.5 7.5 4.15 0 7.5-3.36 7.5-7.5v-35.813c-2.483-.129-4.982-.197-7.496-.197z"/><path d="m143.087 285.78h-35.907c-.387 4.271-.595 8.594-.595 12.966 0 .68.016 1.356.026 2.034h36.476c4.14 0 7.5-3.36 7.5-7.5s-3.36-7.5-7.5-7.5z"/><path d="m389.953 286.82h-35.507c-4.14 0-7.5 3.36-7.5 7.5s3.36 7.5 7.5 7.5h35.971c.022-1.023.039-2.046.039-3.074.001-4.017-.175-7.993-.503-11.926z"/><path d="m248.517 397.18c-4.14 0-7.5 3.36-7.5 7.5v35.804c2.485.13 4.987.197 7.504.197 2.515 0 5.013-.068 7.496-.197v-35.804c0-4.14-3.35-7.5-7.5-7.5z"/></g></g></svg>